# xmcd
#
# Track frame offsets:
#  150
#  13326
#  27930
#  41491
#  54443
#  68853
#  83502
#  99081
#  113417
#  127053
#  142834
#  156442
#  171513
#
# Disc length: 2490 seconds
#
# Revision: 1
# Processed by: cddbd v1.4PL0 Copyright (c) Steve Scherf et al.
# Submitted via: AltoMP3_Maker 3.0
#
DISCID=a309b80d
DTITLE=Control - Los Reyes De La Cumbia
DYEAR=1900
DGENRE=
TTITLE0=Zapatitos-crls
TTITLE1=Dame Un Beso-crls
TTITLE2=Te Pone A Bailar-crls
TTITLE3=Carita De Angel-crls
TTITLE4=Baila,Baila-crls
TTITLE5=¡Ay Amor!-crls
TTITLE6=No Que No-crls
TTITLE7=Baila Cumbia-crls
TTITLE8=Cabellos Largos-crls
TTITLE9=El Mejoral-crls
TTITLE10=¿Donde Estas?-crls
TTITLE11=Soñando-crls
TTITLE12=Dile A Mi Corazon-crls
EXTD=
EXTT0=
EXTT1=
EXTT2=
EXTT3=
EXTT4=
EXTT5=
EXTT6=
EXTT7=
EXTT8=
EXTT9=
EXTT10=
EXTT11=
EXTT12=
PLAYORDER=
